<?xml version="1.0" standalone="no"?><!DOCTYPE svg PUBLIC "-//W3C//DTD SVG 1.1//EN" "http://www.w3.org/Graphics/SVG/1.1/DTD/svg11.dtd"><svg t="1730093032227" class="icon" viewBox="0 0 1024 1024" version="1.1" xmlns="http://www.w3.org/2000/svg" p-id="61607" id="mx_n_1730093032228" xmlns:xlink="http://www.w3.org/1999/xlink" width="200" height="200"><path d="M545.785 63.565H216.601c-16.5 0-30 13.5-30 30 0 13.956 9.659 25.764 22.622 29.074v217.436h-0.367v448.004c0 95.229 77.17 172.335 172.306 172.335 95.201 0 172.339-77.105 172.339-172.335V122.548c12.792-3.427 22.285-15.147 22.285-28.982-0.001-16.501-13.501-30.001-30.001-30.001z m-233.539 586.71c-19.029 0-34.473-15.446-34.473-34.474 0-18.995 15.443-34.441 34.473-34.441 19.028 0 34.475 15.446 34.475 34.441 0 19.028-15.447 34.474-34.475 34.474z m103.422 103.391c-19.028 0-34.507-15.446-34.507-34.474 0-18.995 15.479-34.443 34.507-34.443 18.995 0 34.44 15.448 34.44 34.443 0 19.028-15.445 34.474-34.44 34.474z m0-206.812c-38.087 0-68.947-30.844-68.947-68.915 0-38.103 30.86-68.931 68.947-68.931 38.055 0 68.914 30.829 68.914 68.931 0 38.072-30.859 68.915-68.914 68.915zM503.5 340.075H259.223v-216.51H503.5v216.51zM819.099 293.751H606.02c-10.681 0-19.419 8.738-19.419 19.419 0 9.033 6.253 16.677 14.644 18.819v140.744h-0.238v289.99c0 61.642 49.951 111.551 111.532 111.551 61.623 0 111.554-49.91 111.554-111.551V331.93c8.28-2.218 14.426-9.805 14.426-18.76-0.001-10.68-8.741-19.419-19.42-19.419z m-27.371 178.983h-158.12V332.589h158.119v140.145z" p-id="61608" fill="#333333"></path></svg>