<?xml version="1.0" encoding="utf-8"?>
<svg version="1.1" xmlns:xlink="http://www.w3.org/1999/xlink" width="38px" height="38px" xmlns="http://www.w3.org/2000/svg">
  <g transform="matrix(1 0 0 1 -32 -701 )">
    <path d="M 17 2.923076923076921  L 17 20.324519230769226  L 28.895833333333332 32.793269230769226  C 27.341820987654323 34.4375  25.527584876543212 35.71634615384615  23.453125 36.62980769230769  C 21.37866512345679 37.54326923076923  19.190586419753085 38  16.88888888888889 38  C 13.824845679012347 38  10.999035493827162 37.21594551282051  8.411458333333332 35.64783653846154  C 5.823881172839507 34.07972756410256  3.7750771604938276 31.9521233974359  2.2650462962962963 29.26502403846154  C 0.7550154320987653 26.57792467948718  0 23.643429487179485  0 20.46153846153846  C 0 17.27964743589743  0.7550154320987653 14.34515224358974  2.2650462962962963 11.658052884615387  C 3.7750771604938276 8.970953525641026  5.823881172839507 6.843349358974357  8.411458333333332 5.275240384615386  C 10.999035493827162 3.7071314102564066  13.824845679012347 2.923076923076921  17 2.923076923076921  Z M 32.986111111111114 32.93028846153846  L 21.00115740740741 20  L 38 20  C 38.00000000000001 22.85176282051282  37.56018518518519 25.12399839743589  36.68055555555556 27.278245192307693  C 35.80092592592593 29.432491987179485  34.56944444444445 31.316506410256405  32.986111111111114 32.93028846153846  Z M 34.3275462962963 8.73497596153846  C 35.83757716049383 11.422075320512818  36.59259259259259 14.356570512820511  36.59259259259259 18  L 19 18  L 19 0  C 22.76774691358025 0  25.593557098765434 0.7840544871794897  28.18113425925926 2.352163461538461  C 30.768711419753085 3.9202724358974317  32.817515432098766 6.0478766025640995  34.3275462962963 8.73497596153846  Z " fill-rule="nonzero" fill="#4c5155" stroke="none" transform="matrix(1 0 0 1 32 701 )" />
  </g>
</svg>