<?xml version="1.0" encoding="utf-8"?>
<svg version="1.1" xmlns:xlink="http://www.w3.org/1999/xlink" width="46px" height="38px" xmlns="http://www.w3.org/2000/svg">
  <g transform="matrix(1 0 0 1 -24 -1260 )">
    <path d="M 9 19  L 15 19  L 15 31.666666666666668  L 9 31.666666666666668  L 9 19  Z M 18 6.333333333333332  L 23 6.333333333333332  L 23 31.666666666666668  L 18 31.666666666666668  L 18 6.333333333333332  Z M 3 34.83333333333333  L 46 34.83333333333333  L 46 38  L 0 38  L 0 0  L 3 0  L 3 34.83333333333333  Z M 25 12.666666666666668  L 31 12.666666666666668  L 31 31.666666666666668  L 25 31.666666666666668  L 25 12.666666666666668  Z M 34 3.166666666666668  L 40 3.166666666666668  L 40 31.666666666666668  L 34 31.666666666666668  L 34 3.166666666666668  Z " fill-rule="nonzero" fill="#4c5155" stroke="none" transform="matrix(1 0 0 1 24 1260 )" />
  </g>
</svg>