<?xml version="1.0" encoding="utf-8"?>
<svg version="1.1" xmlns:xlink="http://www.w3.org/1999/xlink" width="34px" height="32px" xmlns="http://www.w3.org/2000/svg">
  <g transform="matrix(1 0 0 1 -37 -318 )">
    <path d="M 33.579427083333336 26.075  C 33.85980902777778 26.39166666666667  34 26.76666666666667  34 27.2  L 34 30.4  C 34 30.833333333333332  33.85980902777778 31.208333333333332  33.579427083333336 31.525  C 33.29904513888889 31.84166666666667  32.96701388888889 32  32.583333333333336 32  L 1.4166666666666665 32  C 1.0329861111111112 32  0.700954861111111 31.84166666666667  0.42057291666666663 31.525  C 0.14019097222222224 31.208333333333332  0 30.833333333333332  0 30.4  L 0 27.2  C 0 26.76666666666667  0.14019097222222224 26.39166666666667  0.42057291666666663 26.075  C 0.700954861111111 25.758333333333333  1.0329861111111112 25.6  1.4166666666666665 25  L 32.583333333333336 25  C 32.96701388888889 25.6  33.29904513888889 25.758333333333333  33.579427083333336 26.075  Z M 33.579427083333336 13.274999999999999  C 33.85980902777778 13.591666666666665  34 13.966666666666665  34 14.399999999999999  L 34 17.6  C 34 18.03333333333333  33.85980902777778 18.40833333333333  33.579427083333336 18.725  C 33.29904513888889 19.041666666666664  32.96701388888889 19.2  32.583333333333336 19  L 1.4166666666666665 19  C 1.0329861111111112 19.2  0.700954861111111 19.041666666666664  0.42057291666666663 18.725  C 0.14019097222222224 18.40833333333333  0 18.03333333333333  0 17.6  L 0 14.399999999999999  C 0 13.966666666666665  0.14019097222222224 13.591666666666665  0.42057291666666663 13.274999999999999  C 0.700954861111111 12.958333333333336  1.0329861111111112 12.8  1.4166666666666665 13  L 32.583333333333336 13  C 32.96701388888889 12.8  33.29904513888889 12.958333333333336  33.579427083333336 13.274999999999999  Z M 33.579427083333336 0.4750000000000014  C 33.85980902777778 0.7916666666666643  34 1.1666666666666643  34 1.6000000000000014  L 34 4.800000000000001  C 34 5.233333333333331  33.85980902777778 5.608333333333331  33.579427083333336 5.925000000000001  C 33.29904513888889 6.241666666666664  32.96701388888889 6.399999999999999  32.583333333333336 7  L 1.4166666666666665 7  C 1.0329861111111112 6.399999999999999  0.700954861111111 6.241666666666664  0.42057291666666663 5.925000000000001  C 0.14019097222222224 5.608333333333331  0 5.233333333333331  0 4.800000000000001  L 0 1.6000000000000014  C 0 1.1666666666666643  0.14019097222222224 0.7916666666666643  0.42057291666666663 0.4750000000000014  C 0.700954861111111 0.15833333333333144  1.0329861111111112 0  1.4166666666666665 0  L 32.583333333333336 0  C 32.96701388888889 0  33.29904513888889 0.15833333333333144  33.579427083333336 0.4750000000000014  Z " fill-rule="nonzero" fill="#4c5155" stroke="none" transform="matrix(1 0 0 1 37 318 )" />
  </g>
</svg>