<?xml version="1.0" encoding="utf-8"?>
<svg version="1.1" xmlns:xlink="http://www.w3.org/1999/xlink" width="46px" height="39px" xmlns="http://www.w3.org/2000/svg">
  <g transform="matrix(1 0 0 1 -32 -2201 )">
    <path d="M 26.285714285714285 32  L 26.285714285714285 35  L 42.714285714285715 35  L 42.714285714285715 32  L 26.285714285714285 32  Z M 16.42857142857143 18  L 16.42857142857143 21  L 42.714285714285715 21  L 42.714285714285715 18  L 16.42857142857143 18  Z M 32.85714285714286 3.5454545454545467  L 32.85714285714286 7.090909090909089  L 42.714285714285715 7.090909090909089  L 42.714285714285715 3.5454545454545467  L 32.85714285714286 3.5454545454545467  Z M 45.512276785714285 28.88991477272727  C 45.837425595238095 29.24076704545454  46 29.656249999999993  46 30.136363636363637  L 46 37.22727272727273  C 46 37.70738636363636  45.837425595238095 38.12286931818181  45.512276785714285 38.473721590909086  C 45.18712797619048 38.82457386363637  44.802083333333336 39  44.35714285714286 39  L 1.6428571428571428 39  C 1.1979166666666667 39  0.8128720238095238 38.82457386363637  0.4877232142857143 38.473721590909086  C 0.16257440476190477 38.12286931818181  0 37.70738636363636  0 37.22727272727273  L 0 30.136363636363637  C 0 29.656249999999993  0.16257440476190477 29.24076704545454  0.4877232142857143 28.88991477272727  C 0.8128720238095238 28.539062500000007  1.1979166666666667 28.363636363636363  1.6428571428571428 28  L 44.35714285714286 28  C 44.802083333333336 28.363636363636363  45.18712797619048 28.539062500000007  45.512276785714285 28.88991477272727  Z M 45.512276785714285 14.708096590909088  C 45.837425595238095 15.058948863636358  46 15.474431818181811  46 15.954545454545453  L 46 23.045454545454543  C 46 23.52556818181818  45.837425595238095 23.941051136363633  45.512276785714285 24.291903409090907  C 45.18712797619048 24.64275568181818  44.802083333333336 24.818181818181817  44.35714285714286 24.818181818181817  L 1.6428571428571428 24.818181818181817  C 1.1979166666666667 24.818181818181817  0.8128720238095238 24.64275568181818  0.4877232142857143 24.291903409090907  C 0.16257440476190477 23.941051136363633  0 23.52556818181818  0 23.045454545454543  L 0 15.954545454545453  C 0 15.474431818181811  0.16257440476190477 15.058948863636358  0.4877232142857143 14.708096590909088  C 0.8128720238095238 14.357244318181815  1.1979166666666667 14.181818181818182  1.6428571428571428 14.181818181818182  L 44.35714285714286 14.181818181818182  C 44.802083333333336 14.181818181818182  45.18712797619048 14.357244318181815  45.512276785714285 14.708096590909088  Z M 45.512276785714285 0.5262784090909111  C 45.837425595238095 0.8771306818181764  46 1.292613636363634  46 1.7727272727272712  L 46 8.863636363636365  C 46 9.343749999999996  45.837425595238095 9.75923295454545  45.512276785714285 10.110085227272728  C 45.18712797619048 10.460937499999995  44.802083333333336 10.636363636363635  44.35714285714286 11  L 1.6428571428571428 11  C 1.1979166666666667 10.636363636363635  0.8128720238095238 10.460937499999995  0.4877232142857143 10.110085227272728  C 0.16257440476190477 9.75923295454545  0 9.343749999999996  0 8.863636363636365  L 0 1.7727272727272712  C 0 1.292613636363634  0.16257440476190477 0.8771306818181764  0.4877232142857143 0.5262784090909111  C 0.8128720238095238 0.1754261363636327  1.1979166666666667 0  1.6428571428571428 0  L 44.35714285714286 0  C 44.802083333333336 0  45.18712797619048 0.1754261363636327  45.512276785714285 0.5262784090909111  Z " fill-rule="nonzero" fill="#4c5155" stroke="none" transform="matrix(1 0 0 1 32 2201 )" />
  </g>
</svg>