<?xml version="1.0" standalone="no"?><!DOCTYPE svg PUBLIC "-//W3C//DTD SVG 1.1//EN" "http://www.w3.org/Graphics/SVG/1.1/DTD/svg11.dtd"><svg t="1730093639428" class="icon" viewBox="0 0 1024 1024" version="1.1" xmlns="http://www.w3.org/2000/svg" p-id="66582" xmlns:xlink="http://www.w3.org/1999/xlink" width="200" height="200"><path d="M958.144 619.584c0-3.072 0-6.144-0.512-9.216V191.616h-0.512v-1.024c0-39.648-24.128-69.056-44.768-87.04-24.224-21.152-57.696-40.224-99.904-55.584C730.528 17.536 622.432 0.512 507.52 0.512c-114.848 0-221.92 16.448-304.352 46.816-42.208 15.584-75.712 34.592-99.904 55.648-20.128 18.08-44.832 47.968-44.832 87.04 0 3.136 0 6.208 0.512 9.376v633.92c0 39.2 24.224 69.056 44.832 87.04 24.128 21.216 57.696 40.224 99.904 55.584 81.92 30.432 190.016 47.456 304.864 47.456s222.496-17.056 304.928-47.392c42.208-15.424 75.712-34.528 99.904-55.584 20.032-18.08 44.256-47.392 44.768-87.04V619.52z m-73.152-214.752c0 22.688-36.576 51.488-92.672 73.664-73.664 28.832-177.152 45.344-284.32 45.344-107.072 0-210.656-16.544-284.224-45.344-64.352-25.248-89.664-52.512-92.16-70.592v-109.12c18.496 11.84 40.608 22.688 65.824 32.416 82.944 31.968 193.184 49.44 310.56 49.44 117.984 0 228.192-17.568 310.56-49.952a369.888 369.888 0 0 0 66.496-32.928v107.072zM151.744 157.632c16.96-14.912 43.744-29.856 77.248-42.208 74.176-27.808 173.056-42.784 279.104-42.784s205.536 15.52 279.2 42.784c32.928 12.352 59.744 27.296 77.248 42.208 9.28 8.256 20.128 20.128 20.128 32.48v0.512c-0.512 22.688-36.576 51.488-92.16 73.152-73.728 28.32-177.216 44.768-284.384 44.768-107.072 0-210.656-16.448-284.224-44.768-62.912-24.224-88.576-51.488-92.16-69.056v-4.544c0-11.84 10.752-24.224 20.032-32.48zM132.16 513.024c18.592 11.84 40.736 23.2 65.984 32.928 82.88 32.48 193.088 49.952 310.496 49.952 117.472 0 228.192-17.472 310.56-49.952a376.416 376.416 0 0 0 66.496-32.928v111.168c-3.648 17.568-29.408 44.832-92.736 69.056-73.664 28.32-177.152 44.832-284.832 44.832-106.56 0-210.08-16.544-283.2-44.832-56.16-21.664-92.736-50.976-92.736-73.664v-106.56z m732.864 353.792c-16.96 14.912-43.808 29.856-77.248 42.208-74.176 27.808-173.056 42.784-279.2 42.784-106.048 0-205.472-15.424-279.104-42.784-32.928-12.352-59.744-27.296-77.248-42.208-9.28-8.256-20.128-20.64-20.128-32.928v-106.72c18.592 11.84 41.248 23.2 66.496 32.928 82.368 31.968 192.576 49.504 309.472 49.504 117.472 0 227.68-17.568 310.56-49.44a369.856 369.856 0 0 0 66.496-32.992v106.048c0 12.864-10.816 25.248-20.128 33.504z m-102.528-455.744v0.16c0 19.808 16.032 35.84 35.84 35.84h0.448a35.84 35.84 0 0 0 35.84-35.84v-0.16-0.224a35.84 35.84 0 0 0-35.84-35.84h-0.448a35.84 35.84 0 0 0-35.84 35.84v0.224z m0.512 210.656v0.16c0 19.808 16.032 35.84 35.84 35.84h0.448a35.84 35.84 0 0 0 35.84-35.84v-0.224-0.16a35.84 35.84 0 0 0-35.84-35.84h-0.448a35.84 35.84 0 0 0-35.84 35.84v0.16z m0 217.216v0.288c0 19.808 16.032 35.84 35.84 35.84h0.448a35.84 35.84 0 0 0 35.84-35.84v-0.224-0.224a35.84 35.84 0 0 0-35.84-35.84h-0.448a35.84 35.84 0 0 0-35.84 35.84v0.224z" p-id="66583"></path></svg>