<?xml version="1.0" standalone="no"?><!DOCTYPE svg PUBLIC "-//W3C//DTD SVG 1.1//EN" "http://www.w3.org/Graphics/SVG/1.1/DTD/svg11.dtd"><svg t="1730092605367" class="icon" viewBox="0 0 1219 1024" version="1.1" xmlns="http://www.w3.org/2000/svg" p-id="56605" xmlns:xlink="http://www.w3.org/1999/xlink" width="238.0859375" height="200"><path d="M261.973333 546.328381c39.009524-16.725333 69.656381-22.308571 69.656381-36.230095 0-25.112381-25.063619-36.230095-52.931047-52.955429-36.230095-22.308571-86.406095-69.680762-86.406096-158.866286 0-78.019048 41.813333-130.974476 105.910858-158.841904 16.725333-8.362667 50.151619-19.504762 36.230095-52.955429-8.362667-22.28419-55.734857-16.725333-86.406095 0-72.46019 36.230095-122.63619 114.273524-122.636191 209.017905 0 86.406095 41.813333 150.503619 105.910857 192.292571C83.626667 549.10781 0 674.523429 0 844.507429c0 19.504762 16.725333 36.230095 36.230095 36.230095 19.504762 0 36.230095-16.725333 36.230095-36.230095-2.779429-169.984 103.131429-259.169524 189.513143-298.179048z m738.499048-55.759238c64.121905-44.568381 103.131429-105.886476 103.131429-192.292572 0-97.52381-50.151619-175.567238-122.636191-211.797333-30.646857-16.725333-78.019048-22.28419-86.381714 0-13.921524 33.450667 16.725333 44.592762 33.450666 52.955429 64.097524 27.867429 103.131429 80.822857 103.131429 158.841904 0 86.406095-52.97981 136.557714-86.406095 158.866286-25.088 16.725333-52.955429 27.867429-52.955429 52.955429 0 13.921524 30.646857 19.504762 69.680762 36.230095 86.381714 39.009524 189.488762 130.974476 189.488762 298.179048 0 19.504762 16.725333 36.230095 33.450667 36.230095 19.504762 0 33.450667-16.725333 33.450666-36.230095 8.362667-169.984-72.46019-295.399619-217.380571-353.938286z m-236.860952 27.891809c78.019048-50.176 128.195048-136.557714 128.195047-236.909714A280.697905 280.697905 0 0 0 610.328381 0.097524a280.697905 280.697905 0 0 0-281.478095 281.453714c0 97.54819 50.176 186.733714 128.195047 236.909714-181.150476 64.097524-317.68381 239.664762-317.683809 448.682667 0 19.504762 16.700952 36.230095 36.205714 36.230095s36.230095-16.725333 36.230095-36.230095c0-222.96381 181.150476-404.114286 404.114286-404.114286 222.939429 0 404.089905 181.150476 404.089905 404.114286 0 19.504762 16.725333 36.230095 36.230095 36.230095 19.504762 0 36.230095-16.725333 36.230095-36.230095-5.583238-209.017905-142.140952-384.585143-328.850285-448.682667z m-150.503619-25.112381c-117.028571 0-209.017905-94.744381-209.017905-208.993523 0-117.052952 94.768762-209.017905 209.017905-209.017905 117.052952 0 209.017905 94.744381 209.017904 209.017905 0 114.249143-91.964952 209.017905-209.017904 209.017904z" p-id="56606"></path></svg>