<svg xmlns:xlink="http://www.w3.org/1999/xlink" xmlns="http://www.w3.org/2000/svg" version="1.1" width="33px" height="32px">
  <g transform="matrix(1 0 0 1 -1298 -896 )">
    <path d="M 20.23828125 19.625  C 21.9768629807692 17.9391025641026  22.8461538461538 15.9102564102564  22.8461538461538 13.5384615384615  C 22.8461538461538 11.1666666666667  21.9768629807692 9.13782051282051  20.23828125 7.45192307692308  C 18.4996995192308 5.76602564102564  16.4074519230769 4.92307692307692  13.9615384615385 4.92307692307692  C 11.515625 4.92307692307692  9.42337740384616 5.76602564102564  7.68479567307692 7.45192307692308  C 5.94621394230769 9.13782051282051  5.07692307692308 11.1666666666667  5.07692307692308 13.5384615384615  C 5.07692307692308 15.9102564102564  5.94621394230769 17.9391025641026  7.68479567307692 19.625  C 9.42337740384616 21.3108974358974  11.515625 22.1538461538462  13.9615384615385 22.1538461538462  C 16.4074519230769 22.1538461538462  18.4996995192308 21.3108974358974  20.23828125 19.625  Z M 32.2662259615385 27.8076923076923  C 32.7554086538462 28.2820512820513  33 28.8589743589744  33 29.5384615384615  C 33 30.2051282051282  32.7487980769231 30.7820512820513  32.2463942307692 31.2692307692308  C 31.7439903846154 31.7564102564103  31.1490384615385 32  30.4615384615385 32  C 29.7475961538462 32  29.1526442307692 31.7564102564103  28.6766826923077 31.2692307692308  L 21.8743990384615 24.6923076923077  C 19.5078125 26.2820512820513  16.8701923076923 27.0769230769231  13.9615384615385 27.0769230769231  C 12.0709134615385 27.0769230769231  10.2629206730769 26.7211538461538  8.53756009615384 26.0096153846154  C 6.81219951923077 25.2980769230769  5.32481971153846 24.3365384615385  4.07542067307692 23.125  C 2.82602163461538 21.9134615384615  1.83443509615385 20.4711538461538  1.10066105769231 18.7980769230769  C 0.366887019230769 17.125  0 15.3717948717949  0 13.5384615384615  C 0 11.7051282051282  0.366887019230769 9.95192307692308  1.10066105769231 8.27884615384615  C 1.83443509615385 6.60576923076923  2.82602163461538 5.16346153846154  4.07542067307692 3.95192307692308  C 5.32481971153846 2.74038461538462  6.81219951923077 1.77884615384615  8.53756009615384 1.06730769230769  C 10.2629206730769 0.35576923076923  12.0709134615385 0  13.9615384615385 0  C 15.8521634615385 0  17.66015625 0.35576923076923  19.3855168269231 1.06730769230769  C 21.1108774038462 1.77884615384615  22.5982572115385 2.74038461538462  23.84765625 3.95192307692308  C 25.0970552884615 5.16346153846154  26.0886418269231 6.60576923076923  26.8224158653846 8.27884615384615  C 27.5561899038462 9.95192307692308  27.9230769230769 11.7051282051282  27.9230769230769 13.5384615384615  C 27.9230769230769 16.3589743589744  27.1033653846154 18.9166666666667  25.4639423076923 21.2115384615385  L 32.2662259615385 27.8076923076923  Z " fill-rule="nonzero" fill="#797979" stroke="none" transform="matrix(1 0 0 1 1298 896 )"/>
  </g>
</svg>