<?xml version="1.0" standalone="no"?><!DOCTYPE svg PUBLIC "-//W3C//DTD SVG 1.1//EN" "http://www.w3.org/Graphics/SVG/1.1/DTD/svg11.dtd"><svg t="1730093464858" class="icon" viewBox="0 0 1293 1024" version="1.1" xmlns="http://www.w3.org/2000/svg" p-id="63829" xmlns:xlink="http://www.w3.org/1999/xlink" width="252.5390625" height="200"><path d="M647.834981 1024a26.121999 26.121999 0 0 1-12.278-3.135 723.327979 723.327979 0 0 0-298.577991-75.231998 631.115982 631.115982 0 0 0-297.272991 74.448998 26.121999 26.121999 0 0 1-26.121999 0A26.121999 26.121999 0 0 1 0 997.878001V104.493027a26.121999 26.121999 0 0 1 9.927-20.375999C14.367 80.460028 118.856997 0.00303 334.36599 0.00303a683.88398 683.88398 0 0 1 326.789991 82.023998 26.121999 26.121999 0 0 1 12.799999 22.465999v893.384974a26.121999 26.121999 0 0 1-12.799999 22.464999 26.121999 26.121999 0 0 1-13.322 3.657zM336.97899 893.388004a749.189978 749.189978 0 0 1 284.732992 63.215998V120.166026a653.059981 653.059981 0 0 0-287.345992-67.917998c-160.129995 0-252.863993 48.064999-282.120992 66.089999v835.914975a694.59398 694.59398 0 0 1 284.733992-60.864998z" p-id="63830" fill="#333333"></path><path d="M1266.934963 1024a26.121999 26.121999 0 0 1-12.278-3.135 723.327979 723.327979 0 0 0-298.577991-75.231998 631.115982 631.115982 0 0 0-297.272991 74.448998 26.121999 26.121999 0 0 1-26.122 0 26.121999 26.121999 0 0 1-13.322999-22.726999V104.493027a26.121999 26.121999 0 0 1 9.927-20.375999C633.467981 80.460028 737.956978 0.00303 953.465972 0.00303a683.88398 683.88398 0 0 1 326.529991 82.023998 26.121999 26.121999 0 0 1 13.060999 22.465999v893.384974a26.121999 26.121999 0 0 1-12.8 22.464999 26.121999 26.121999 0 0 1-13.321999 3.657zM956.078972 893.388004a749.189978 749.189978 0 0 1 284.733992 63.215998V120.166026a653.059981 653.059981 0 0 0-287.346992-67.917998c-160.129995 0-252.863993 48.064999-282.120992 66.089999v835.914975a694.59398 694.59398 0 0 1 284.733992-60.864998z" p-id="63831" fill="#333333"></path><path d="M1151.995966 459.757017a26.121999 26.121999 0 0 1-16.717999-6.008l-72.097998-59.297999-72.096998 59.297999a26.121999 26.121999 0 0 1-27.950999 3.396 26.121999 26.121999 0 0 1-14.89-23.51V41.798029h52.244999v336.45599l45.974998-38.660999a26.121999 26.121999 0 0 1 33.436999 0l45.974999 37.876999V41.800029h52.244998v391.834988a26.121999 26.121999 0 0 1-14.889999 23.51 26.121999 26.121999 0 0 1-11.233 2.613z" p-id="63832" fill="#333333"></path></svg>