<?xml version="1.0" encoding="utf-8"?>
<svg version="1.1" xmlns:xlink="http://www.w3.org/1999/xlink" width="42px" height="25px" xmlns="http://www.w3.org/2000/svg">
  <g transform="matrix(1 0 0 1 -56 -995 )">
    <path d="M 31.183593750000004 19.58550347222222  C 34.31640625 17.82769097222222  36.921875 15.465856481481477  39 12.5  C 36.625 9.085648148148149  33.6484375 6.532118055555555  30.0703125 4.839409722222221  C 31.0234375 6.344039351851849  31.5 7.971643518518517  31.5 9.722222222222221  C 31.5 12.39872685185185  30.47265625 14.688223379629628  28.41796875 16.590711805555554  C 26.363281250000004 18.493200231481477  23.890625 19.444444444444446  21 19.444444444444446  C 18.109375000000004 19.444444444444446  15.636718750000002 18.493200231481477  13.582031250000002 16.590711805555554  C 11.527343750000002 14.688223379629628  10.5 12.39872685185185  10.5 9.722222222222221  C 10.5 7.971643518518517  10.976562500000002 6.344039351851849  11.929687499999998 4.839409722222221  C 8.351562500000002 6.532118055555555  5.375000000000001 9.085648148148149  3 12.5  C 5.078125000000001 15.465856481481477  7.68359375 17.82769097222222  10.81640625 19.58550347222222  C 13.949218750000002 21.34331597222222  17.34375 22.22222222222222  21 22.22222222222222  C 24.65625 22.22222222222222  28.050781250000007 21.34331597222222  31.183593750000004 19.58550347222222  Z M 21.796875 4.904513888888889  C 22.015625000000004 4.7019675925925934  22.125 4.456018518518517  22.125 4.166666666666666  C 22.125 3.877314814814814  22.015625000000004 3.6313657407407387  21.796875 3.4288194444444446  C 21.578125000000004 3.2262731481481453  21.3125 3.1249999999999973  21 3.125  C 19.046875 3.1249999999999973  17.371093750000004 3.7724247685185173  15.97265625 5.067274305555555  C 14.574218750000002 6.3621238425925934  13.875 7.913773148148148  13.875 9.722222222222221  C 13.875 10.011574074074073  13.984375000000004 10.257523148148149  14.203125 10.460069444444445  C 14.421875000000002 10.662615740740739  14.687500000000002 10.76388888888889  15 10.76388888888889  C 15.312500000000002 10.76388888888889  15.578125000000002 10.662615740740739  15.796875000000002 10.460069444444445  C 16.015625 10.257523148148149  16.125 10.011574074074073  16.125 9.722222222222221  C 16.125 8.47800925925926  16.6015625 7.414641203703703  17.5546875 6.532118055555555  C 18.507812500000004 5.6495949074074066  19.656250000000004 5.208333333333331  21 5.208333333333334  C 21.3125 5.208333333333331  21.578125000000004 5.107060185185183  21.796875 4.904513888888889  Z M 41.53125 11.002604166666666  C 41.84375 11.508969907407407  42 12.00810185185185  42 12.5  C 42 12.991898148148145  41.84375 13.491030092592593  41.53125 13.997395833333332  C 39.34375000000001 17.324942129629626  36.40234375000001 19.990596064814817  32.70703125 21.99435763888889  C 29.01171875 23.998119212962962  25.109375000000004 25  21 25  C 16.890625 25  12.98828125 23.994502314814817  9.29296875 21.983506944444446  C 5.59765625 19.972511574074073  2.6562500000000004 17.310474537037035  0.46875 13.997395833333332  C 0.15625 13.491030092592593  0 12.991898148148145  0 12.5  C 0 12.00810185185185  0.15625 11.508969907407407  0.46875 11.002604166666666  C 2.6562500000000004 7.689525462962962  5.59765625 5.027488425925925  9.29296875 3.0164930555555554  C 12.98828125 1.0054976851851833  16.890625 0  21 0  C 25.109375000000004 0  29.01171875 1.0054976851851833  32.70703125 3.0164930555555554  C 36.40234375000001 5.027488425925925  39.34375000000001 7.689525462962962  41.53125 11.002604166666666  Z " fill-rule="nonzero" fill="#4c5155" stroke="none" transform="matrix(1 0 0 1 56 995 )" />
  </g>
</svg>