<?xml version="1.0" encoding="utf-8"?>
<svg version="1.1" xmlns:xlink="http://www.w3.org/1999/xlink" width="32px" height="31px" xmlns="http://www.w3.org/2000/svg">
  <g transform="matrix(1 0 0 1 -176 -178 )">
    <path d="M 4.0462962962963 0.7568359375  C 4.50925925925926 1.26139322916667  4.74074074074074 1.87022569444444  4.74074074074074 2.58333333333333  C 4.74074074074074 3.55208333333333  4.34567901234568 4.29210069444444  4 4.80338541666667  L 4 30.3541666666667  C 3.55555555555556 30.5290798611111  3.49691358024691 30.6804470486111  3.37962962962963 30.8082682291667  C 3.26234567901235 30.9360894097222  3.12345679012346 31  2.96296296296296 31  L 1.77777777777778 31  C 1.61728395061728 31  1.4783950617284 30.9360894097222  1.36111111111111 30.8082682291667  C 1.24382716049383 30.6804470486111  1.18518518518519 30.5290798611111  1.18518518518519 30.3541666666667  L 1.18518518518519 4.80338541666667  C 0.395061728395062 4.29210069444444  0 3.55208333333333  0 2.58333333333333  C 0 1.87022569444444  0.231481481481481 1.26139322916667  0.694444444444444 0.7568359375  C 1.15740740740741 0.252278645833334  1.71604938271605 0  2.37037037037037 0  C 3.02469135802469 0  3.58333333333333 0.252278645833334  4.0462962962963 0.7568359375  Z M 31.6481481481481 2.966796875  C 31.8827160493827 3.22243923611111  32 3.52517361111111  32 3.875  L 32 19.2740885416667  C 32 19.6104600694444  31.9228395061728 19.8694661458333  31.7685185185185 20.0511067708333  C 31.6141975308642 20.2327473958333  31.3703703703704 20.4177517361111  31.037037037037 20.6061197916667  C 28.3827160493827 22.1668836805556  26.1049382716049 22.947265625  24.2037037037037 22.947265625  C 23.4506172839506 22.947265625  22.6882716049383 22.7992621527778  21.9166666666667 22.5032552083333  C 21.1450617283951 22.2072482638889  20.4753086419753 21.8843315972222  19.9074074074074 21.5345052083333  C 19.3395061728395 21.1846788194444  18.6265432098765 20.8617621527778  17.7685185185185 20.5657552083333  C 16.9104938271605 20.2697482638889  16.0308641975309 20.1217447916667  15.1296296296296 20.1217447916667  C 12.7592592592593 20.1217447916667  9.89506172839506 21.1039496527778  6.53703703703704 23.068359375  C 6.32716049382716 23.189453125  6.12345679012346 23.25  5.92592592592593 23.25  C 5.60493827160494 23.25  5.32716049382716 23.1221788194444  5.09259259259259 22.8665364583333  C 4.85802469135803 22.6108940972222  4.74074074074074 22.3081597222222  5 21.9583333333333  L 5 6.98307291666667  C 4.74074074074074 6.55251736111111  4.9320987654321 6.18250868055555  5.31481481481481 5.873046875  C 5.57407407407407 5.68467881944444  6.06172839506173 5.39539930555555  6.77777777777778 5.00520833333333  C 9.69135802469136 3.390625  12.2901234567901 2.58333333333333  14.5740740740741 2.58333333333333  C 15.8950617283951 2.58333333333333  17.1296296296296 2.77842881944444  18.2777777777778 3.16861979166667  C 19.4259259259259 3.55881076388889  20.7777777777778 4.15082465277777  22.3333333333333 4.94466145833333  C 22.8024691358025 5.20030381944444  23.3456790123457 5.328125  23.962962962963 5.328125  C 24.6296296296296 5.328125  25.3549382716049 5.18684895833333  26.1388888888889 4.904296875  C 26.9228395061728 4.62174479166667  27.6018518518519 4.30555555555555  28.1759259259259 3.95572916666667  C 28.75 3.60590277777777  29.2932098765432 3.28971354166667  29.8055555555556 3.00716145833333  C 30.3179012345679 2.724609375  30.6543209876543 2.58333333333333  30.8148148148148 2.58333333333333  C 31.1358024691358 2.58333333333333  31.4135802469136 2.71115451388889  31.6481481481481 2.966796875  Z " fill-rule="nonzero" fill="#333333" stroke="none" transform="matrix(1 0 0 1 176 178 )" />
  </g>
</svg>