<?xml version="1.0" encoding="utf-8"?>
<svg version="1.1" xmlns:xlink="http://www.w3.org/1999/xlink" width="45px" height="26px" xmlns="http://www.w3.org/2000/svg">
  <g transform="matrix(1 0 0 1 -98 -228 )">
    <path d="M 33.4109933035714 20.3689236111111  C 36.767578125 18.5407986111111  39.5591517857143 16.0844907407407  41.7857142857143 13  C 39.2410714285714 9.44907407407407  36.0518973214286 6.79340277777778  32.2181919642857 5.03298611111111  C 33.2393973214286 6.59780092592592  33.75 8.29050925925926  33.75 10.1111111111111  C 33.75 12.8946759259259  32.6492745535714 15.2757523148148  30.4478236607143 17.2543402777778  C 28.2463727678571 19.2329282407407  25.5970982142857 20.2222222222222  22.5 20.2222222222222  C 19.4029017857143 20.2222222222222  16.7536272321429 19.2329282407407  14.5521763392857 17.2543402777778  C 12.3507254464286 15.2757523148148  11.25 12.8946759259259  11.25 10.1111111111111  C 11.25 8.29050925925926  11.7606026785714 6.59780092592592  12.7818080357143 5.03298611111111  C 8.94810267857143 6.79340277777778  5.75892857142857 9.44907407407407  3.21428571428571 13  C 5.44084821428572 16.0844907407407  8.232421875 18.5407986111111  11.5890066964286 20.3689236111111  C 14.9455915178571 22.1970486111111  18.5825892857143 23.1111111111111  22.5 23.1111111111111  C 26.4174107142857 23.1111111111111  30.0544084821429 22.1970486111111  33.4109933035714 20.3689236111111  Z M 23.3537946428571 5.10069444444444  C 23.5881696428571 4.8900462962963  23.7053571428571 4.63425925925926  23.7053571428571 4.33333333333333  C 23.7053571428571 4.03240740740741  23.5881696428571 3.77662037037037  23.3537946428571 3.56597222222222  C 23.1194196428571 3.35532407407407  22.8348214285714 3.25  22.5 3.25  C 20.4073660714286 3.25  18.6118861607143 3.92332175925926  17.1135602678571 5.26996527777778  C 15.615234375 6.6166087962963  14.8660714285714 8.23032407407407  14.8660714285714 10.1111111111111  C 14.8660714285714 10.412037037037  14.9832589285714 10.6678240740741  15.2176339285714 10.8784722222222  C 15.4520089285714 11.0891203703704  15.7366071428571 11.1944444444444  16.0714285714286 11.1944444444444  C 16.40625 11.1944444444444  16.6908482142857 11.0891203703704  16.9252232142857 10.8784722222222  C 17.1595982142857 10.6678240740741  17.2767857142857 10.412037037037  17.2767857142857 10.1111111111111  C 17.2767857142857 8.81712962962963  17.7873883928571 7.71122685185185  18.80859375 6.79340277777778  C 19.8297991071429 5.8755787037037  21.0602678571429 5.41666666666666  22.5 5.41666666666667  C 22.8348214285714 5.41666666666666  23.1194196428571 5.31134259259259  23.3537946428571 5.10069444444444  Z M 44.4977678571429 11.4427083333333  C 44.8325892857143 11.9693287037037  45 12.4884259259259  45 13  C 45 13.5115740740741  44.8325892857143 14.0306712962963  44.4977678571429 14.5572916666667  C 42.1540178571429 18.0179398148148  39.0025111607143 20.7902199074074  35.0432477678571 22.8741319444444  C 31.083984375 24.9580439814815  26.9029017857143 26  22.5 26  C 18.0970982142857 26  13.916015625 24.9542824074074  9.95675223214286 22.8628472222222  C 5.99748883928571 20.771412037037  2.84598214285714 18.0028935185185  0.502232142857143 14.5572916666667  C 0.167410714285714 14.0306712962963  0 13.5115740740741  0 13  C 0 12.4884259259259  0.167410714285714 11.9693287037037  0.502232142857143 11.4427083333333  C 2.84598214285714 7.99710648148148  5.99748883928571 5.22858796296296  9.95675223214286 3.13715277777778  C 13.916015625 1.04571759259259  18.0970982142857 0  22.5 0  C 26.9029017857143 0  31.083984375 1.04571759259259  35.0432477678571 3.13715277777778  C 39.0025111607143 5.22858796296296  42.1540178571429 7.99710648148148  44.4977678571429 11.4427083333333  Z " fill-rule="nonzero" fill="#333333" stroke="none" transform="matrix(1 0 0 1 98 228 )" />
  </g>
</svg>