<?xml version="1.0" encoding="utf-8"?>
<svg version="1.1" xmlns:xlink="http://www.w3.org/1999/xlink" width="40px" height="38px" xmlns="http://www.w3.org/2000/svg">
  <g transform="matrix(1 0 0 1 -56 -127 )">
    <path d="M 24.53125 23.3046875  C 26.638621794871796 21.302684294871792  27.692307692307693 18.893429487179485  27.692307692307693 16.07692307692308  C 27.692307692307693 13.260416666666664  26.638621794871796 10.851161858974358  24.53125 8.849158653846153  C 22.423878205128208 6.847155448717946  19.887820512820515 5.846153846153847  16.923076923076923 5.846153846153847  C 13.958333333333336 5.846153846153847  11.422275641025642 6.847155448717946  9.314903846153847 8.849158653846153  C 7.207532051282052 10.851161858974358  6.153846153846154 13.260416666666664  6.153846153846154 16.07692307692308  C 6.153846153846154 18.893429487179485  7.207532051282052 21.302684294871792  9.314903846153847 23.3046875  C 11.422275641025642 25.306690705128197  13.958333333333336 26.307692307692307  16.923076923076923 26.307692307692307  C 19.887820512820515 26.307692307692307  22.423878205128208 25.306690705128197  24.53125 23.3046875  Z M 39.11057692307693 33.02163461538461  C 39.70352564102564 33.5849358974359  40 34.27003205128205  40 35.07692307692308  C 40 35.868589743589745  39.695512820512825 36.5536858974359  39.08653846153846 37.13221153846154  C 38.4775641025641 37.710737179487175  37.75641025641026 38  36.92307692307693 38  C 36.05769230769231 38  35.33653846153846 37.710737179487175  34.75961538461539 37.13221153846154  L 26.514423076923073 29.322115384615387  C 23.645833333333336 31.2099358974359  20.448717948717952 32.15384615384615  16.923076923076923 32.15384615384615  C 14.631410256410257 32.15384615384615  12.439903846153847 31.731370192307693  10.348557692307692 30.886418269230774  C 8.257211538461538 30.041466346153847  6.454326923076923 28.89963942307692  4.939903846153847 27.4609375  C 3.425480769230769 26.02223557692308  2.2235576923076925 24.309495192307693  1.3341346153846154 22.322716346153847  C 0.4447115384615385 20.3359375  0 18.254006410256405  0 16.07692307692308  C 0 13.89983974358974  0.4447115384615385 11.817908653846153  1.3341346153846154 9.831129807692307  C 2.2235576923076925 7.844350961538461  3.425480769230769 6.131610576923078  4.939903846153847 4.692908653846153  C 6.454326923076923 3.2542067307692326  8.257211538461538 2.112379807692307  10.348557692307692 1.267427884615386  C 12.439903846153847 0.42247596153846056  14.631410256410257 0  16.923076923076923 0  C 19.21474358974359 0  21.40625 0.42247596153846056  23.497596153846153 1.267427884615386  C 25.588942307692307 2.112379807692307  27.391826923076927 3.2542067307692326  28.90625 4.692908653846153  C 30.420673076923073 6.131610576923078  31.622596153846153 7.844350961538461  32.512019230769226 9.831129807692307  C 33.40144230769231 11.817908653846153  33.84615384615385 13.89983974358974  33.84615384615385 16.07692307692308  C 33.84615384615385 19.42628205128205  32.8525641025641 22.463541666666664  30.865384615384617 25.18870192307692  L 39.11057692307693 33.02163461538461  Z " fill-rule="nonzero" fill="#4c5155" stroke="none" transform="matrix(1 0 0 1 56 127 )" />
  </g>
</svg>