<?xml version="1.0" encoding="utf-8"?>
<svg version="1.1" xmlns:xlink="http://www.w3.org/1999/xlink" width="28px" height="20px" xmlns="http://www.w3.org/2000/svg">
  <g transform="matrix(1 0 0 1 -884 -2430 )">
    <path d="M 26.4375 7.68465909090909  C 27.03125 7.31534090909091  27.5520833333333 6.90340909090909  28 6.44886363636363  L 28 17.7272727272727  C 28 18.3522727272727  27.7552083333333 18.8873106060606  27.265625 19.3323863636364  C 26.7760416666667 19.7774621212121  26.1875 20  25.5 20  L 2.5 20  C 1.8125 20  1.22395833333333 19.7774621212121  0.734375 19.3323863636364  C 0.244791666666667 18.8873106060606  0 18.3522727272727  0 17.7272727272727  L 0 6.44886363636363  C 0.458333333333333 6.91287878787879  0.984375 7.3248106060606  1.578125 7.68465909090909  C 5.34895833333333 10.0142045454545  7.9375 11.6477272727273  9.34375 12.5852272727273  C 9.9375 12.9829545454545  10.4192708333333 13.2930871212121  10.7890625 13.515625  C 11.1588541666667 13.7381628787879  11.6510416666667 13.9654356060606  12.265625 14.1974431818182  C 12.8802083333333 14.4294507575758  13.453125 14.5454545454545  13.984375 14.5454545454545  L 14 14.5454545454545  L 14.015625 14.5454545454545  C 14.546875 14.5454545454545  15.1197916666667 14.4294507575758  15.734375 14.1974431818182  C 16.3489583333333 13.9654356060606  16.8411458333333 13.7381628787879  17.2109375 13.515625  C 17.5807291666667 13.2930871212121  18.0625 12.9829545454545  18.65625 12.5852272727273  C 20.4270833333333 11.4204545454545  23.0208333333333 9.78693181818182  26.4375 7.68465909090909  Z M 27.2578125 0.667613636363635  C 27.7526041666667 1.11268939393939  28 1.64772727272727  28 2.27272727272727  C 28 3.02083333333333  27.7447916666667 3.73579545454545  27.234375 4.41761363636363  C 26.7239583333333 5.09943181818182  26.0885416666667 5.68181818181818  25.328125 6.16477272727273  C 21.4114583333333 8.63636363636363  18.9739583333333 10.1751893939394  18.015625 10.78125  C 17.9114583333333 10.8475378787879  17.6901041666667 10.9919507575758  17.3515625 11.2144886363636  C 17.0130208333333 11.4370265151515  16.7317708333333 11.6169507575758  16.5078125 11.7542613636364  C 16.2838541666667 11.891571969697  16.0130208333333 12.0454545454545  15.6953125 12.2159090909091  C 15.3776041666667 12.3863636363636  15.078125 12.5142045454545  14.796875 12.5994318181818  C 14.515625 12.6846590909091  14.2552083333333 12.7272727272727  14.015625 12.7272727272727  L 14 12.7272727272727  L 13.984375 12.7272727272727  C 13.7447916666667 12.7272727272727  13.484375 12.6846590909091  13.203125 12.5994318181818  C 12.921875 12.5142045454545  12.6223958333333 12.3863636363636  12.3046875 12.2159090909091  C 11.9869791666667 12.0454545454545  11.7161458333333 11.891571969697  11.4921875 11.7542613636364  C 11.2682291666667 11.6169507575758  10.9869791666667 11.4370265151515  10.6484375 11.2144886363636  C 10.3098958333333 10.9919507575758  10.0885416666667 10.8475378787879  9.984375 10.78125  C 9.03645833333333 10.1751893939394  7.671875 9.31107954545455  5.890625 8.18892045454545  C 4.109375 7.06676136363636  3.04166666666667 6.39204545454545  2.6875 6.16477272727273  C 2.04166666666667 5.76704545454545  1.43229166666667 5.22017045454545  0.859375 4.52414772727273  C 0.286458333333333 3.828125  0 3.18181818181818  0 2.58522727272727  C 0 1.84659090909091  0.216145833333333 1.2310606060606  0.6484375 0.738636363636365  C 1.08072916666667 0.246212121212119  1.69791666666667 0  2.5 0  L 25.5 0  C 26.1770833333333 0  26.7630208333333 0.222537878787876  27.2578125 0.667613636363635  Z " fill-rule="nonzero" fill="#f5f7fa" stroke="none" transform="matrix(1 0 0 1 884 2430 )" />
  </g>
</svg>