<?xml version="1.0" encoding="utf-8"?>
<svg version="1.1" xmlns:xlink="http://www.w3.org/1999/xlink" width="27px" height="23px" xmlns="http://www.w3.org/2000/svg">
  <g transform="matrix(1 0 0 1 -369 -2395 )">
    <path d="M 7.48828125 0.0513392857142868  C 7.55859375 0.0171130952380965  7.63392857142857 0  7.71428571428571 0  C 7.84486607142857 0  7.95786830357143 0.0406436011904772  8.05329241071429 0.121930803571429  C 8.14871651785714 0.203218005952381  8.19642857142857 0.299479166666665  8.19642857142857 0.410714285714287  L 8.19642857142857 19.3035714285714  C 8.19642857142857 19.4747023809524  8.11104910714286 19.594494047619  7.94029017857143 19.6629464285714  L 0.708147321428571 22.9486607142857  C 0.637834821428572 22.9828869047619  0.5625 23  0.482142857142857 23  C 0.3515625 23  0.238560267857143 22.9593563988095  0.143136160714286 22.8780691964286  C 0.0477120535714286 22.7967819940476  0 22.7005208333333  0 22.5892857142857  L 0 3.69642857142857  C 0 3.52529761904762  0.0853794642857143 3.40550595238095  0.256138392857143 3.33705357142857  L 7.48828125 0.0513392857142868  Z M 26.2918526785714 0.0513392857142868  C 26.3621651785714 0.0171130952380965  26.4375 0  26.5178571428571 0  C 26.6484375 0  26.7614397321429 0.0406436011904772  26.8568638392857 0.121930803571429  C 26.9522879464286 0.203218005952381  27 0.299479166666665  27 0.410714285714287  L 27 19.3035714285714  C 27 19.4747023809524  26.9146205357143 19.594494047619  26.7438616071429 19.6629464285714  L 19.51171875 22.9486607142857  C 19.44140625 22.9828869047619  19.3660714285714 23  19.2857142857143 23  C 19.1551339285714 23  19.0421316964286 22.9593563988095  18.9467075892857 22.8780691964286  C 18.8512834821429 22.7967819940476  18.8035714285714 22.7005208333333  18.8035714285714 22.5892857142857  L 18.8035714285714 3.69642857142857  C 18.8035714285714 3.52529761904762  18.8889508928571 3.40550595238095  19.0597098214286 3.33705357142857  L 26.2918526785714 0.0513392857142868  Z M 9.30385044642857 0.121930803571429  C 9.39927455357143 0.0406436011904772  9.51227678571429 0  9.64285714285714 0  C 9.72321428571429 0  9.79352678571429 0.0128348214285711  9.85379464285714 0.0385044642857132  L 17.5680803571429 3.32421875  C 17.7488839285714 3.40978422619047  17.8392857142857 3.53385416666667  17.8392857142857 3.69642857142857  L 17.8392857142857 22.5892857142857  C 17.8392857142857 22.7005208333333  17.7915736607143 22.7967819940476  17.6961495535714 22.8780691964286  C 17.6007254464286 22.9593563988095  17.4877232142857 23  17.3571428571429 23  C 17.2767857142857 23  17.2064732142857 22.9871651785714  17.1462053571429 22.9614955357143  L 9.43191964285714 19.67578125  C 9.25111607142857 19.5902157738095  9.16071428571429 19.4661458333333  9.16071428571429 19.3035714285714  L 9.16071428571429 0.410714285714287  C 9.16071428571429 0.299479166666665  9.20842633928572 0.203218005952381  9.30385044642857 0.121930803571429  Z " fill-rule="nonzero" fill="#f5f7fa" stroke="none" transform="matrix(1 0 0 1 369 2395 )" />
  </g>
</svg>